<svg xmlns="http://www.w3.org/2000/svg" width="22.5" height="13.507" viewBox="0 0 22.5 13.507">
  <path id="Path_23" data-name="Path 23" d="M21.9-9a7.217,7.217,0,0,0-2.145.633q-.773.352-2.18,1.16a12.361,12.361,0,0,1-1.406.7v.035q-.984.422-1.441.6a3.84,3.84,0,0,1-1.248.246.667.667,0,0,1-.7-.422,3.147,3.147,0,0,1-.018-1.406h0a4.544,4.544,0,0,0-.035-1.512,1.309,1.309,0,0,0-1.477-1.16,3.974,3.974,0,0,0-1.934.914A42.844,42.844,0,0,0,5.309-5.7L6.75-9.352a2.822,2.822,0,0,0,.123-1.881,3.147,3.147,0,0,0-1-1.564,2.858,2.858,0,0,0-1.687-.7,3.357,3.357,0,0,0-2,.527l-1.934,1.3a.643.643,0,0,0-.229.369.528.528,0,0,0,.053.4L.7-9.949a.477.477,0,0,0,.334.264.544.544,0,0,0,.439-.088l2.039-1.371a.76.76,0,0,1,.633-.07.809.809,0,0,1,.475.4.83.83,0,0,1,.053.65L1.2-1.547A1.219,1.219,0,0,0,1.3-.527.989.989,0,0,0,2.25,0a1.173,1.173,0,0,0,.809-.316Q4.57-1.828,6.574-3.727q2.566-2.426,3.9-3.48A6.2,6.2,0,0,0,10.512-5.7a2.833,2.833,0,0,0,.668,1.441,3,3,0,0,0,2.32.879,5.678,5.678,0,0,0,1.793-.316q.6-.211,1.793-.738h0q.387-.176,1.406-.773a20.011,20.011,0,0,1,1.828-.984,5.466,5.466,0,0,1,1.652-.562.506.506,0,0,0,.369-.158.547.547,0,0,0,.158-.4V-8.437a.52.52,0,0,0-.176-.4A.609.609,0,0,0,21.9-9Z" transform="translate(0 13.507)" fill="#a1b6bc"/>
</svg>
