<svg xmlns="http://www.w3.org/2000/svg" width="15" height="13.125" viewBox="0 0 15 13.125">
  <path id="Path_18" data-name="Path 18" d="M13.506-9.375H2.344a.456.456,0,0,1-.337-.132.456.456,0,0,1-.132-.337.456.456,0,0,1,.132-.337.456.456,0,0,1,.337-.132h11.25a.456.456,0,0,0,.337-.132.456.456,0,0,0,.132-.337,1.356,1.356,0,0,0-.41-1,1.356,1.356,0,0,0-1-.41H1.875a1.812,1.812,0,0,0-1.333.542A1.812,1.812,0,0,0,0-10.312V-.937A1.812,1.812,0,0,0,.542.4,1.812,1.812,0,0,0,1.875.938H13.506a1.491,1.491,0,0,0,1.055-.41,1.312,1.312,0,0,0,.439-1v-7.5a1.312,1.312,0,0,0-.439-1A1.491,1.491,0,0,0,13.506-9.375ZM12.188-3.281a.9.9,0,0,1-.659-.278.9.9,0,0,1-.278-.659.9.9,0,0,1,.278-.659.9.9,0,0,1,.659-.278.9.9,0,0,1,.659.278.9.9,0,0,1,.278.659.9.9,0,0,1-.278.659A.9.9,0,0,1,12.188-3.281Z" transform="translate(0 12.188)" fill="#00002c"/>
</svg>
