<svg xmlns="http://www.w3.org/2000/svg" width="18.75" height="9.375" viewBox="0 0 18.75 9.375">
  <path id="Path_19" data-name="Path 19" d="M14.063-10.312H4.688a4.585,4.585,0,0,0-2.344.63A4.654,4.654,0,0,0,.63-7.969,4.585,4.585,0,0,0,0-5.625,4.585,4.585,0,0,0,.63-3.281,4.654,4.654,0,0,0,2.344-1.567a4.585,4.585,0,0,0,2.344.63A4.645,4.645,0,0,0,6.519-1.3a4.489,4.489,0,0,0,1.509-1.04h2.7A4.489,4.489,0,0,0,12.231-1.3a4.645,4.645,0,0,0,1.831.366,4.585,4.585,0,0,0,2.344-.63A4.654,4.654,0,0,0,18.12-3.281a4.585,4.585,0,0,0,.63-2.344,4.585,4.585,0,0,0-.63-2.344,4.654,4.654,0,0,0-1.714-1.714A4.585,4.585,0,0,0,14.063-10.312ZM7.5-5.039a.339.339,0,0,1-.1.249.339.339,0,0,1-.249.1H5.625v1.523a.339.339,0,0,1-.1.249.339.339,0,0,1-.249.1H4.1a.339.339,0,0,1-.249-.1.339.339,0,0,1-.1-.249V-4.687H2.227a.339.339,0,0,1-.249-.1.339.339,0,0,1-.1-.249V-6.211a.339.339,0,0,1,.1-.249.339.339,0,0,1,.249-.1H3.75V-8.086a.339.339,0,0,1,.1-.249.339.339,0,0,1,.249-.1H5.273a.339.339,0,0,1,.249.1.339.339,0,0,1,.1.249v1.523H7.148a.339.339,0,0,1,.249.1.339.339,0,0,1,.1.249Zm5.391,1.992a1.356,1.356,0,0,1-1-.41,1.356,1.356,0,0,1-.41-1,1.356,1.356,0,0,1,.41-1,1.356,1.356,0,0,1,1-.41,1.356,1.356,0,0,1,1,.41,1.356,1.356,0,0,1,.41,1,1.356,1.356,0,0,1-.41,1A1.356,1.356,0,0,1,12.891-3.047Zm2.344-2.344a1.356,1.356,0,0,1-1-.41,1.356,1.356,0,0,1-.41-1,1.356,1.356,0,0,1,.41-1,1.356,1.356,0,0,1,1-.41,1.356,1.356,0,0,1,1,.41,1.356,1.356,0,0,1,.41,1,1.356,1.356,0,0,1-.41,1A1.356,1.356,0,0,1,15.234-5.391Z" transform="translate(0 10.313)" fill="#00002c"/>
</svg>
