<svg xmlns="http://www.w3.org/2000/svg" width="140.674" height="32.649" viewBox="0 0 140.674 32.649">
  <path id="Path_16" data-name="Path 16" d="M-.378,0,12.934-19.82h-1.2a10.013,10.013,0,0,0-4.861.892,9.859,9.859,0,0,0-3.013,3.139l-1.2-.462,1.239-5.774H20.219v.819L7.391-2.226l.987.042h1.848a10.4,10.4,0,0,0,5.06-1.071,11.059,11.059,0,0,0,3.674-3.716l.945.357L18.833,0ZM26.791-25.279A3.2,3.2,0,0,1,24.429-26.3a3.3,3.3,0,0,1-1-2.383,3.235,3.235,0,0,1,.987-2.373,3.235,3.235,0,0,1,2.373-.987,3.267,3.267,0,0,1,2.4.976,3.242,3.242,0,0,1,.976,2.383,3.287,3.287,0,0,1-1,2.394A3.236,3.236,0,0,1,26.791-25.279Zm2.876,1.89V-4.262a7.659,7.659,0,0,0,.294,2.729,1.348,1.348,0,0,0,1.071.714V0H22.487V-.819A1.361,1.361,0,0,0,23.6-1.564a9.416,9.416,0,0,0,.294-3.076V-14.655a7.92,7.92,0,0,0-.388-3.065,2.135,2.135,0,0,0-1.417-1.071v-.861a11.47,11.47,0,0,0,3.538-1.375,9.959,9.959,0,0,0,2.7-2.362ZM34.14,0V-.819a1.348,1.348,0,0,0,1.071-.714A7.659,7.659,0,0,0,35.5-4.262V-23.348a7.934,7.934,0,0,0-.378-3.055,2.114,2.114,0,0,0-1.386-1.039v-.9A11.531,11.531,0,0,0,37.258-29.7a9.768,9.768,0,0,0,2.677-2.341H41.32V-4.262a7.659,7.659,0,0,0,.294,2.729,1.348,1.348,0,0,0,1.071.714V0ZM45.876,0V-.819a1.348,1.348,0,0,0,1.071-.714,7.659,7.659,0,0,0,.294-2.729V-23.348a7.934,7.934,0,0,0-.378-3.055,2.114,2.114,0,0,0-1.386-1.039v-.9A11.531,11.531,0,0,0,48.994-29.7a9.768,9.768,0,0,0,2.677-2.341h1.386V-4.262a7.659,7.659,0,0,0,.294,2.729,1.348,1.348,0,0,0,1.071.714V0ZM69.182-12.85a16.539,16.539,0,0,0-4.892,3.1,4.775,4.775,0,0,0-1.47,3.391,3.123,3.123,0,0,0,.829,2.278,2.9,2.9,0,0,0,2.173.85,4.089,4.089,0,0,0,1.753-.409,5.5,5.5,0,0,0,1.606-1.165ZM77.812-2.373a10.8,10.8,0,0,1-2.761,2.2,5.779,5.779,0,0,1-2.74.777A2.812,2.812,0,0,1,70.137-.22a4.428,4.428,0,0,1-.955-2.572A21.905,21.905,0,0,1,65.3-.252a7.3,7.3,0,0,1-3.128.861A4.64,4.64,0,0,1,58.621-.9a5.334,5.334,0,0,1-1.407-3.779A6.184,6.184,0,0,1,58.2-8.021a8.767,8.767,0,0,1,2.813-2.729,29.139,29.139,0,0,1,4.01-1.953q2.834-1.2,4.157-1.827v-2.75a5.322,5.322,0,0,0-.567-2.866,2.122,2.122,0,0,0-1.89-.829,1.972,1.972,0,0,0-1.522.556,4.775,4.775,0,0,0-.85,2.152,7.726,7.726,0,0,1-1.165,3.128,2.283,2.283,0,0,1-1.837.777,2.666,2.666,0,0,1-1.942-.8,2.638,2.638,0,0,1-.808-1.953,4.636,4.636,0,0,1,2.425-3.821,10.163,10.163,0,0,1,5.826-1.638q4.052,0,5.921,1.554t1.869,4.934v10.54a5.665,5.665,0,0,0,.273,2.089.944.944,0,0,0,.924.619,1.923,1.923,0,0,0,.63-.094,1.679,1.679,0,0,0,.525-.3ZM79.281,0V-.819a1.375,1.375,0,0,0,1.1-.745,9.108,9.108,0,0,0,.3-3.076V-13.9a7.674,7.674,0,0,0-.388-3.013,2.143,2.143,0,0,0-1.417-1.06v-.9a11.487,11.487,0,0,0,3.548-1.365,10.031,10.031,0,0,0,2.688-2.331h1.029v4.031a30.264,30.264,0,0,1,4.661-3.1,7.665,7.665,0,0,1,3.338-.976,3.015,3.015,0,0,1,2.866,1.375q.787,1.375.787,5.931V-4.262a7.659,7.659,0,0,0,.294,2.729,1.363,1.363,0,0,0,1.092.714V0H90.934V-.819a1.375,1.375,0,0,0,1.1-.745,9.108,9.108,0,0,0,.3-3.076V-14.8a7.1,7.1,0,0,0-.367-2.9,1.461,1.461,0,0,0-1.4-.651,5.608,5.608,0,0,0-1.837.378,19.945,19.945,0,0,0-2.593,1.2V-4.64a9.108,9.108,0,0,0,.3,3.076,1.39,1.39,0,0,0,1.123.745V0Zm38.465-5.942.987.525a10.744,10.744,0,0,1-3.3,4.514A7.654,7.654,0,0,1,110.712.609a8.271,8.271,0,0,1-6.656-2.929,11.843,11.843,0,0,1-2.478-7.905q0-5.627,2.646-8.986a8.462,8.462,0,0,1,6.992-3.359,8.3,8.3,0,0,1,5.155,1.6,4.652,4.652,0,0,1,2.11,3.779,2.3,2.3,0,0,1-.661,1.68,2.17,2.17,0,0,1-1.606.672,2.536,2.536,0,0,1-1.785-.6,6.239,6.239,0,0,1-1.281-2.488,6.212,6.212,0,0,0-1.186-2.383,2.284,2.284,0,0,0-1.69-.619q-1.407,0-2.079,1.816a17.7,17.7,0,0,0-.672,5.7q0,5.081,1.449,7.674a4.62,4.62,0,0,0,4.262,2.593,4.533,4.533,0,0,0,2.4-.672A7.307,7.307,0,0,0,117.746-5.942Zm9.3-7.769h3.863a6.173,6.173,0,0,0,3.013-.43A2.311,2.311,0,0,0,134.48-16a6.033,6.033,0,0,0-1-3.685,3.234,3.234,0,0,0-2.74-1.333,2.961,2.961,0,0,0-2.771,1.816A12.582,12.582,0,0,0,127.047-13.71Zm12.43,7.559.819.651a14.014,14.014,0,0,1-4.1,4.567A8.8,8.8,0,0,1,131.184.609a9.208,9.208,0,0,1-7.286-3.2,12.27,12.27,0,0,1-2.792-8.367,12.407,12.407,0,0,1,2.8-8.293,8.714,8.714,0,0,1,6.918-3.317,8.034,8.034,0,0,1,6.477,2.95,12.234,12.234,0,0,1,2.551,7.884H127.089a10.354,10.354,0,0,0,1.8,6.225,5.723,5.723,0,0,0,4.777,2.152,7.044,7.044,0,0,0,3.1-.682A9.036,9.036,0,0,0,139.477-6.152Z" transform="translate(0.378 32.04)" fill="#00002c"/>
</svg>
