<svg xmlns="http://www.w3.org/2000/svg" width="21" height="21" viewBox="0 0 21 21">
  <path id="Path_22" data-name="Path 22" d="M18.75-19.5H2.25a2.17,2.17,0,0,0-1.594.656A2.17,2.17,0,0,0,0-17.25V-.75A2.17,2.17,0,0,0,.656.844,2.17,2.17,0,0,0,2.25,1.5h16.5A2.17,2.17,0,0,0,20.344.844,2.17,2.17,0,0,0,21-.75v-16.5a2.17,2.17,0,0,0-.656-1.594A2.17,2.17,0,0,0,18.75-19.5ZM17.25-7.687a.542.542,0,0,1-.164.4.542.542,0,0,1-.4.164H12.375v4.313a.542.542,0,0,1-.164.4.542.542,0,0,1-.4.164H9.188a.542.542,0,0,1-.4-.164.542.542,0,0,1-.164-.4V-7.125H4.313a.542.542,0,0,1-.4-.164.542.542,0,0,1-.164-.4v-2.625a.542.542,0,0,1,.164-.4.542.542,0,0,1,.4-.164H8.625v-4.312a.542.542,0,0,1,.164-.4.542.542,0,0,1,.4-.164h2.625a.542.542,0,0,1,.4.164.542.542,0,0,1,.164.4v4.313h4.313a.542.542,0,0,1,.4.164.542.542,0,0,1,.164.4Z" transform="translate(0 19.5)" fill="#1d0c2e"/>
</svg>
