<svg xmlns="http://www.w3.org/2000/svg" width="15.437" height="21.836" viewBox="0 0 15.437 21.836">
  <g id="ZIL" transform="translate(-4)">
    <path id="Path_7" data-name="Path 7" d="M19.437,9.024l-3.147,1.4L7.943,14.672l8.347,4.011v-6.63l3.147-1.417v9.795l-3.147,1.4L4,15.954V12.829l8.508-4.171L4,4.572V1.4L7.2,0,19.437,5.889Z" transform="translate(0 0)" fill="#49c1bf"/>
    <path id="Path_8" data-name="Path 8" d="M4,1.4,16.291,7.291l3.147-1.4L7.2,0Z" fill="#65828a"/>
    <path id="Path_9" data-name="Path 9" d="M21.778,6.995v3.135l-3.147,1.4V8.4Z" transform="translate(-2.34 -1.119)" fill="#75939b"/>
    <path id="Path_10" data-name="Path 10" d="M4,1.672v3.17l8.508,4.086L4,13.1v3.125L16.291,22.1V18.959L7.943,14.943,16.291,10.7V7.561Z" transform="translate(0 -0.268)" fill="#a1b6bc"/>
    <path id="Path_11" data-name="Path 11" d="M18.631,23.834l3.147-1.4V12.637l-3.147,1.417Z" transform="translate(-2.34 -2.021)" fill="#75939b"/>
  </g>
</svg>
